<svg width="80" height="80" viewBox="0 0 80 80" fill="none" xmlns="http://www.w3.org/2000/svg">
  <circle cx="40" cy="40" r="36" fill="#FC642D"/>
  <path d="M28 32C28 30.8954 28.8954 30 30 30H50C51.1046 30 52 30.8954 52 32V52C52 53.1046 51.1046 54 50 54H30C28.8954 54 28 53.1046 28 52V32Z" fill="white" fill-opacity="0.3"/>
  <path d="M33 26C33 24.8954 33.8954 24 35 24H45C46.1046 24 47 24.8954 47 26V30H33V26Z" fill="white"/>
  <rect x="32" y="36" width="16" height="4" rx="1" fill="white"/>
  <rect x="32" y="44" width="10" height="4" rx="1" fill="white"/>
  <circle cx="50" cy="50" r="8" fill="white" fill-opacity="0.4"/>
  <path d="M50 46V54M46 50H54" stroke="white" stroke-width="2.5" stroke-linecap="round"/>
</svg>